<?xml version="1.0" encoding="utf-8"?>
<svg width="64px" height="63.80954px" viewBox="0 0 64 63.80954" version="1.1" xmlns:xlink="http://www.w3.org/1999/xlink" xmlns="http://www.w3.org/2000/svg">
  <defs>
    <path d="M0 0L64 0L64 64L0 64L0 0Z" id="path_1" />
    <clipPath id="mask_1">
      <use xlink:href="#path_1" />
    </clipPath>
  </defs>
  <g id="location-map-outline" transform="translate(0 -0.1904602)">
    <path d="M0 0L64 0L64 64L0 64L0 0Z" id="Background" fill="none" fill-rule="evenodd" stroke="none" />
    <g clip-path="url(#mask_1)">
      <g id="Group">
        <path d="M62.5 20.1L47.5 16.1L47.5 16.1C47.1 16 46.7 16 46.4 16.1L44.5 16.7C44.8 15.5 45.1 14.3 45.1 13.1C45 5.9 39.2 0 32 0C24.8 0 19 5.9 19 13.2C19 14.4 19.2 15.6 19.5 16.8L17.6 16.2L17.6 16.2C17.2 16.1 16.8 16.1 16.5 16.2L1.5 20.2C0.6 20.3 0 21.1 0 22L0 58C0 58.9 0.6 59.7 1.5 59.9L16.5 63.9C16.7 63.9 16.8 64 17 64C17.2 64 17.3 64 17.5 63.9L17.5 63.9L32 60.1L46.5 64C46.7 64 46.8 64.1 47 64.1C47.2 64.1 47.3 64.1 47.5 64L47.5 64L62.5 60C63.4 59.8 64 59 64 58.1L64 22C64 21.1 63.4 20.3 62.5 20.1L62.5 20.1ZM32 4C37 4 41 8.1 41 13.2C41 18.4 35 25.6 32 29C29 25.5 23 18.5 23 13.2C23 8.1 27 4 32 4L32 4ZM15 59.4L4 56.5L4 23.5L15 20.6L15 59.4L15 59.4ZM19 59.4L19 20.8L21.6 21.7C24 26 27.4 29.8 29.4 32.2C29.6 32.4 29.8 32.6 29.9 32.8L29.9 56.5L19 59.4L19 59.4ZM45 59.4L34 56.5L34 32.7C34.2 32.5 34.4 32.2 34.6 32C36.6 29.7 40 25.9 42.3 21.7L45 20.8L45 59.4L45 59.4ZM60 56.5L49 59.4L49 20.6L60 23.5L60 56.5L60 56.5Z" id="Shape" fill="#FFFFFF" fill-rule="evenodd" stroke="none" />
        <path d="M38 13C38 9.7 35.3 7 32 7C28.7 7 26 9.7 26 13C26 16.3 28.7 19 32 19C35.3 19 38 16.3 38 13L38 13ZM30 13C30 11.9 30.9 11 32 11C33.1 11 34 11.9 34 13C34 14.1 33.1 15 32 15C30.9 15 30 14.1 30 13L30 13Z" id="Shape" fill="#FFFFFF" fill-rule="evenodd" stroke="none" />
      </g>
    </g>
  </g>
</svg>