<?xml version="1.0" encoding="utf-8"?>
<!-- Generator: Adobe Illustrator 18.0.0, SVG Export Plug-In . SVG Version: 6.00 Build 0)  -->
<!DOCTYPE svg PUBLIC "-//W3C//DTD SVG 1.1//EN" "http://www.w3.org/Graphics/SVG/1.1/DTD/svg11.dtd">
<svg version="1.1" id="Layer_1" xmlns="http://www.w3.org/2000/svg" xmlns:xlink="http://www.w3.org/1999/xlink" x="0px" y="0px" viewBox="0 0 64 64" enable-background="new 0 0 64 64" xml:space="preserve">
	<g>
		<g>
			<g>
				<path fill="#FFFFFF" d="M62,14H2c-1.1,0-2-0.9-2-2s0.9-2,2-2h60c1.1,0,2,0.9,2,2S63.1,14,62,14z" />
			</g>
		</g>
		<g>
			<g>
				<path fill="#FFFFFF" d="M62,54H2c-1.1,0-2-0.9-2-2s0.9-2,2-2h60c1.1,0,2,0.9,2,2S63.1,54,62,54z" />
			</g>
		</g>
		<g>
			<g>
				<path fill="#FFFFFF" d="M62,34H2c-1.1,0-2-0.9-2-2s0.9-2,2-2h60c1.1,0,2,0.9,2,2S63.1,34,62,34z" />
			</g>
		</g>
	</g>
</svg>